<?xml version="1.0" standalone="no"?>
<!DOCTYPE svg PUBLIC "-//W3C//DTD SVG 20010904//EN"
 "http://www.w3.org/TR/2001/REC-SVG-20010904/DTD/svg10.dtd">
<svg version="1.0" xmlns="http://www.w3.org/2000/svg"
 width="312.000000pt" height="312.000000pt" viewBox="0 0 312.000000 312.000000"
 preserveAspectRatio="xMidYMid meet">
<metadata>
Created by potrace 1.14, written by Peter Selinger 2001-2017
</metadata>
<g transform="translate(0.000000,312.000000) scale(0.100000,-0.100000)"
fill="#000000" stroke="none">
<path d="M1677 3104 c-1 -1 -38 -4 -82 -8 -233 -18 -467 -99 -658 -230 -86
-59 -108 -77 -199 -166 -208 -204 -342 -459 -393 -751 -43 -244 -11 -379 103
-436 179 -88 565 50 1067 382 77 51 179 122 228 157 l87 65 -115 43 c-64 23
-114 44 -112 46 2 2 71 27 153 55 417 143 757 259 760 259 8 0 -4 -44 -30
-115 -29 -80 -226 -655 -230 -670 -7 -33 -40 -121 -47 -129 -4 -5 -11 4 -15
20 -4 16 -10 34 -14 39 -4 6 -18 41 -30 78 -13 37 -26 70 -31 72 -14 9 -211
-275 -333 -478 -234 -391 -333 -689 -285 -861 28 -100 129 -155 279 -151 486
14 953 316 1174 760 110 220 151 395 149 645 -2 467 -247 904 -649 1162 -136
87 -326 159 -509 193 -51 9 -261 24 -268 19z"/>
<path d="M467 2801 c-220 -230 -359 -505 -423 -836 -19 -98 -25 -377 -11 -495
20 -170 89 -388 173 -550 260 -499 739 -827 1309 -895 56 -7 289 -8 320 -1 11
2 47 7 80 10 85 10 240 50 350 91 149 56 268 122 405 226 69 52 200 173 200
185 0 2 -28 -19 -62 -47 -222 -185 -546 -328 -833 -366 -119 -16 -425 -9 -524
11 -300 63 -547 181 -768 368 -302 255 -509 642 -561 1046 -9 74 -9 320 1 397
7 63 10 76 28 165 11 55 61 217 78 255 90 197 181 348 277 461 26 30 44 54 42
54 -3 0 -39 -36 -81 -79z"/>
</g>
</svg>
